<svg xmlns="http://www.w3.org/2000/svg" viewBox="0 0 413 413"><defs><style>.a,.c{fill:#fff;}.b,.c{stroke:#000;stroke-miterlimit:10;}.d{isolation:isolate;}</style></defs><title>Favicon</title><path d="M23.8.5H390.5a23,23,0,0,1,23,23V390.2a23.3,23.3,0,0,1-23.3,23.3H23.8A23.3,23.3,0,0,1,.5,390.2V23.8A23.3,23.3,0,0,1,23.8.5Z" transform="translate(-0.5 -0.5)"/><circle class="a" cx="153.8" cy="151.8" r="105"/><path d="M154.2,47.8c57.7,0,104.6,46.8,104.6,104.4A104.7,104.7,0,0,1,154.2,256.8c-57.6,0-104.4-46.9-104.4-104.6h0A104.5,104.5,0,0,1,154.2,47.8m0-1A105.5,105.5,0,1,0,259.8,152.2,105.3,105.3,0,0,0,154.2,46.8Z" transform="translate(-0.5 -0.5)"/><ellipse cx="153.9" cy="151.8" rx="41.9" ry="42"/><path d="M154.4,110.8A41.5,41.5,0,1,1,113,152.4v-.2a41.3,41.3,0,0,1,41.4-41.4m0-1a42.5,42.5,0,1,0,42.4,42.6v-.2a42.4,42.4,0,0,0-42.4-42.4Z" transform="translate(-0.5 -0.5)"/><path class="b" d="M143.2,245.8" transform="translate(-0.5 -0.5)"/><path class="c" d="M185.8,145.2" transform="translate(-0.5 -0.5)"/><path class="a" d="M165.7,152.3H352A11.7,11.7,0,0,1,363.7,164V349.4a11.8,11.8,0,0,1-11.9,11.8H165.7a11.8,11.8,0,0,1-11.9-11.8V164.1A11.8,11.8,0,0,1,165.7,152.3Z" transform="translate(-0.5 -0.5)"/><g class="d"><path d="M217,317V209.3A13.4,13.4,0,0,1,230.3,196h36.5a55.9,55.9,0,0,1,18.9,3.1,48,48,0,0,1,15.3,8.7,41.9,41.9,0,0,1,10.2,13.4,41.1,41.1,0,0,1,0,34.5A40.8,40.8,0,0,1,301,269.1a48.2,48.2,0,0,1-15.3,8.8,58.5,58.5,0,0,1-18.9,3.1H257a13.2,13.2,0,0,0-13.3,13.3V317a13.4,13.4,0,0,1-13.4,13.3h0A13.4,13.4,0,0,1,217,317Zm50.2-60.1c7,0,12.2-1.8,15.8-5.6a18.2,18.2,0,0,0,5.3-12.9,18.9,18.9,0,0,0-1.3-7,15.2,15.2,0,0,0-3.9-5.9,19.8,19.8,0,0,0-6.6-4,26.7,26.7,0,0,0-9.3-1.5H257a13.3,13.3,0,0,0-13.3,13.3v10.3A13.2,13.2,0,0,0,257,256.9Z" transform="translate(-0.5 -0.5)"/></g></svg>